<svg width="148" height="15" fill="none" xmlns="http://www.w3.org/2000/svg"><path d="M83.786 14.017c-2.666-1.128-4.008-4.008-6.804-4.66l.653-.652c.124.062 1.163.351 2.33.652 2.889.746 4.846-.56 7.176.466 1.603.705 2.983 1.864 2.983 3.728 0 .751-3.915 1.491-6.338.466z" fill="#8D6A27"/><path d="M78.474 8.332L74 11.873v-1.49l3.821-3.17H148l-46.04 1.119c-4.008 2.516-7.922-.28-8.947-.56-.82-.223-2.268-.093-2.89 0 4.027.672 5.22 4.319 5.313 6.059L87.7 7.773l-9.226.559zM83.786.503c-2.666 1.128-4.008 4.008-6.804 4.66l.653.652c.124-.062 1.163-.351 2.33-.652 2.889-.746 4.846.56 7.176-.466 1.603-.705 2.983-1.864 2.983-3.728 0-.751-3.915-1.491-6.338-.466z" fill="#8D6A27"/><path d="M78.474 6.188L74 2.647v1.49l3.821 3.17H148l-46.04-1.119c-4.008-2.516-7.922.28-8.947.56-.82.223-2.268.093-2.89 0 4.027-.672 5.22-4.319 5.313-6.059L87.7 6.747l-9.226-.559zm-14.26 7.885c2.666-1.128 4.008-4.007 6.804-4.66l-.653-.652c-.124.062-1.163.351-2.33.652-2.889.746-4.846-.559-7.176.466-1.603.705-2.983 1.864-2.983 3.728 0 .752 3.915 1.491 6.338.466z" fill="#8D6A27"/><path d="M69.526 8.388L74 11.93v-1.492L70.179 7.27H0l46.04 1.118c4.008 2.516 7.922-.28 8.947-.56.82-.223 2.268-.092 2.89 0-4.027.672-5.22 4.319-5.313 6.059L60.3 7.829l9.226.559zM64.214.56c2.666 1.127 4.008 4.007 6.804 4.66l-.653.652c-.124-.062-1.163-.352-2.33-.653-2.889-.745-4.846.56-7.176-.466-1.603-.705-2.983-1.864-2.983-3.728 0-.751 3.915-1.49 6.338-.466z" fill="#8D6A27"/><path d="M69.526 6.245L74 2.703v1.491l-3.821 3.169H0l46.04-1.118c4.008-2.517 7.922.28 8.947.559.82.223 2.268.093 2.89 0-4.027-.671-5.22-4.318-5.313-6.058L60.3 6.804l9.226-.56z" fill="#8D6A27"/></svg>