<svg width="148" height="15" viewBox="0 0 148 15" fill="none" xmlns="http://www.w3.org/2000/svg">
<path d="M83.7859 14.017C81.1196 12.8889 79.7784 10.0095 76.9824 9.35706L77.6348 8.70466C77.7591 8.76679 78.7985 9.05607 79.9648 9.35706C82.854 10.1026 84.8111 8.79786 87.1411 9.82305C88.7439 10.5283 90.1235 11.6871 90.1235 13.551C90.1235 14.3024 86.2091 15.0422 83.7859 14.017Z" fill="#8D6A27"/>
<path d="M78.4736 8.33183L74 11.8734V10.3822L77.8212 7.21344H148L101.96 8.33183C97.9521 10.8482 94.0378 8.05223 93.0126 7.77263C92.1924 7.54895 90.7448 7.67943 90.1234 7.77263C94.1496 8.44366 95.3426 12.0909 95.4358 13.8306L87.7003 7.77263L78.4736 8.33183Z" fill="#8D6A27"/>
<path d="M83.7859 0.503015C81.1196 1.6311 79.7784 4.51057 76.9824 5.16296L77.6348 5.81536C77.7591 5.75322 78.7985 5.46395 79.9648 5.16296C82.854 4.41737 84.8111 5.72216 87.1411 4.69697C88.7439 3.99175 90.1235 2.83297 90.1235 0.968993C90.1235 0.217604 86.2091 -0.522182 83.7859 0.503015Z" fill="#8D6A27"/>
<path d="M78.4736 6.18819L74 2.64663V4.13782L77.8212 7.30658H148L101.96 6.18819C97.9521 3.67182 94.0378 6.46779 93.0126 6.74739C92.1924 6.97107 90.7448 6.84059 90.1234 6.74739C94.1496 6.07636 95.3426 2.42917 95.4358 0.689453L87.7003 6.74739L78.4736 6.18819Z" fill="#8D6A27"/>
<path d="M64.2141 14.0732C66.8804 12.9451 68.2216 10.0656 71.0176 9.41321L70.3652 8.76081C70.2409 8.82295 69.2015 9.11222 68.0352 9.41321C65.146 10.1588 63.1889 8.85402 60.8589 9.8792C59.2561 10.5844 57.8765 11.7432 57.8765 13.6072C57.8765 14.3586 61.7909 15.0984 64.2141 14.0732Z" fill="#8D6A27"/>
<path d="M69.5264 8.38798L74 11.9295V10.4384L70.1788 7.26959H0L46.0403 8.38798C50.0479 10.9044 53.9622 8.10838 54.9874 7.82878C55.8076 7.60511 57.2552 7.73558 57.8766 7.82878C53.8504 8.49982 52.6574 12.147 52.5642 13.8867L60.2997 7.82878L69.5264 8.38798Z" fill="#8D6A27"/>
<path d="M64.2141 0.559411C66.8804 1.6875 68.2216 4.56696 71.0176 5.21936L70.3652 5.87175C70.2409 5.80962 69.2015 5.52035 68.0352 5.21936C65.146 4.47377 63.1889 5.77855 60.8589 4.75337C59.2561 4.04815 57.8765 2.88937 57.8765 1.02539C57.8765 0.274 61.7909 -0.465785 64.2141 0.559411Z" fill="#8D6A27"/>
<path d="M69.5264 6.24459L74 2.70303V4.19421L70.1788 7.36298H0L46.0403 6.24459C50.0479 3.72822 53.9622 6.52419 54.9874 6.80378C55.8076 7.02746 57.2552 6.89698 57.8766 6.80378C53.8504 6.13275 52.6574 2.48556 52.5642 0.74585L60.2997 6.80378L69.5264 6.24459Z" fill="#8D6A27"/>
</svg>
